<svg xmlns="http://www.w3.org/2000/svg" width="299.728" height="45.36" viewBox="0 0 284.75 43.094">
  <defs>
    <style>
      .cls-1 {
        fill: #fff;
        fill-rule: evenodd;
      }
    </style>
  </defs>
  <path id="GamesShop" class="cls-1" d="M47.7,36.253q-0.535-6.174-.535-9.789,0-.878.07-2.648t0.07-2.648q0-.8-0.591-0.8-0.535,0-1.633.05t-1.633.05q-0.535,0-1.605-.063t-1.605-.063q-0.62,0-.62.427a42.875,42.875,0,0,0,.338,4.744q0.423,4.091.479,4.769a18.463,18.463,0,0,1-9.463,2.51,11.04,11.04,0,0,1-8.7-3.991,12.608,12.608,0,0,1-3.183-8.484,12.693,12.693,0,0,1,3.1-8.534A10.993,10.993,0,0,1,30.91,7.815a10.289,10.289,0,0,1,5.351,1.531A17.4,17.4,0,0,1,39.7,12.182a7.263,7.263,0,0,0,1.718,1.531,9.583,9.583,0,0,0,2.324-1.97,8.582,8.582,0,0,0,2.014-2.322,1.432,1.432,0,0,0-.366-0.728,16.283,16.283,0,0,0-6.407-4.982,20.008,20.008,0,0,0-8.35-1.82q-8.449,0-13.716,5.522a17.963,17.963,0,0,0-4.985,12.9A17.582,17.582,0,0,0,17,33.04a18.163,18.163,0,0,0,13.631,5.522,23.253,23.253,0,0,0,12.279-3.138,17.171,17.171,0,0,0,2.07,1.017,7.586,7.586,0,0,0,2.042.715q0.76,0,.7-0.552ZM77.759,14.316a19.5,19.5,0,0,0-2.845-.377q-0.479,0-.789,1.581a3.352,3.352,0,0,1-.479,1.581,0.256,0.256,0,0,1-.169-0.075q-1.014-.954-1.493-1.456a11.426,11.426,0,0,0-7.52-2.661,13.242,13.242,0,0,0-9.857,3.79,12.6,12.6,0,0,0-3.577,9.212,12.143,12.143,0,0,0,3.549,8.659,12.282,12.282,0,0,0,9.209,3.891,10.746,10.746,0,0,0,4.45-1,16.915,16.915,0,0,0,3.1-1.832,7.387,7.387,0,0,1,1.521-.979q0.254,0,.535,1.757t0.817,1.757q0.76,0,2.324-.163t2.338-.163a0.637,0.637,0,0,0,.746-0.728l-0.028-.351q-0.7-11.018-.7-11.27a53.952,53.952,0,0,1,1.1-9.914,2.621,2.621,0,0,0,.085-0.452q0-.351-2.309-0.8h0ZM70.8,30.831a7.244,7.244,0,0,1-5.52,2.384,7.505,7.505,0,0,1-5.633-2.334,7.315,7.315,0,0,1-2.169-5.271,7.728,7.728,0,0,1,7.8-7.68,7.166,7.166,0,0,1,5.548,2.384,7.5,7.5,0,0,1,2.056,5.3A7.41,7.41,0,0,1,70.8,30.831h0Zm57.157,1.318q-0.084-3.175-.084-4.756,0-.828.056-2.56t0.056-2.56q0-4.342-1.436-6.35-2-2.711-7.21-2.711a11.97,11.97,0,0,0-5.464,1.406,14.036,14.036,0,0,0-4.337,3.313q-1.774-4.718-8.252-4.719a11.346,11.346,0,0,0-4.788,1.1,16.9,16.9,0,0,0-3.323,2.033l-1.408,1.1q-0.226,0-.521-1.77t-0.634-1.77l-0.225.025q-1.859.3-2.788,0.552-2,.276-3.042.377a0.327,0.327,0,0,0-.254.377,2.211,2.211,0,0,0,.084.527,39.066,39.066,0,0,1,1.1,9.161q0,2.033-.028,6.112t-0.028,6.112a0.554,0.554,0,0,0,.563.678h5.238a0.61,0.61,0,0,0,.648-0.728q0-1.23-.028-3.715t-0.028-3.74V22.323q0-1.481,2.7-2.937a9.213,9.213,0,0,1,4.224-1.33q3.013,0,4.084,1.707A7.942,7.942,0,0,1,103.6,23.8v6.049q0,1.2-.085,3.627t-0.084,3.627a0.582,0.582,0,0,0,.563.728q0.45,0,1.324-.05c0.581-.033,1.023-0.05,1.323-0.05q0.507,0,1.479.075t1.479,0.075q0.505,0,.506-0.678,0-1.23-.112-3.69t-0.113-3.69q0-5.2.113-7.153,0.084-1.531,2.394-3.112a7.369,7.369,0,0,1,4-1.506q2.816,0,3.915,1.054a5.864,5.864,0,0,1,1.183,3.564q0.055,0.728.056,7.078,0,1.155-.1,3.451t-0.1,3.451q0,1.18.591,1.18,0.478,0,1.437-.05t1.436-.05q0.45,0,1.309.075t1.282,0.075q0.648,0,.648-0.979h0Q128.045,35.324,127.96,32.149Zm26.628-15.976a12.155,12.155,0,0,0-8.843-3.464,12.932,12.932,0,0,0-9.6,3.991,12.539,12.539,0,0,0-3.717,9.011,11.83,11.83,0,0,0,3.886,9.274q3.887,3.477,10.421,3.476a14.826,14.826,0,0,0,10.617-3.916,1.316,1.316,0,0,0,.451-0.577,14.43,14.43,0,0,0-.986-1.82q-0.985-1.694-1.056-1.744a0.576,0.576,0,0,0-.3-0.05l-0.9.653a14.092,14.092,0,0,1-8.167,2.56,8.65,8.65,0,0,1-4.844-1.481,5.625,5.625,0,0,1-2.732-3.765q16.222-1.079,17.433-1.481a2.433,2.433,0,0,0,1.8-2.485,10.974,10.974,0,0,0-3.464-8.182h0Zm-4.872,7.153a79.127,79.127,0,0,1-9.97.753q-1.014,0-1.014-.527a5.566,5.566,0,0,1,2.014-4.166,6.6,6.6,0,0,1,4.6-1.857,6.163,6.163,0,0,1,4.154,1.606,4.793,4.793,0,0,1,1.845,3.69q0,0.3-1.634.5h0Zm23.727,1.757a27,27,0,0,0-4.281-2.435q-2.28-1.154-2.281-2.284,0-1.581,2.169-2.108,1.83-.2,3.633-0.427c0.356-.05.535-0.167,0.535-0.351a11.628,11.628,0,0,0-.521-2.058,15.753,15.753,0,0,0-.7-2.033,0.616,0.616,0,0,0-.577-0.326,13.007,13.007,0,0,0-7.267,1.882,6.667,6.667,0,0,0-3.182,5.873,5.6,5.6,0,0,0,2.337,4.668,45.267,45.267,0,0,0,4.366,2.284q2.337,1.155,2.337,2.535,0,2.912-5.323,2.912c0.019,0-.263-0.025-0.844-0.075a3.551,3.551,0,0,0-1.043,0,0.49,0.49,0,0,0-.506.427,13.061,13.061,0,0,0,.154,1.631,13.151,13.151,0,0,1,.155,1.657,1.21,1.21,0,0,0,.479,1.23,11.848,11.848,0,0,0,1.915.075A12.908,12.908,0,0,0,172.4,36.1a6.925,6.925,0,0,0,3.352-6,6.284,6.284,0,0,0-2.31-5.02h0ZM202.719,4.828a15.579,15.579,0,0,0-4.788-1.757,24.182,24.182,0,0,0-5.182-.653,13.357,13.357,0,0,0-8.674,2.711,9.176,9.176,0,0,0-3.436,7.48,8.057,8.057,0,0,0,3.548,6.877q0.141,0.126,6.562,3.389,3.52,1.807,3.521,4.267,0,5.02-8.731,5.02-0.7,0-2.1-.125t-2.07-.126a0.346,0.346,0,0,0-.423.351,1.228,1.228,0,0,0,.085.427q0.479,1.506.7,2.259,0.395,1.833.507,2.786,0.225,0.6,3.267.6a19.782,19.782,0,0,0,11.012-2.912,10.059,10.059,0,0,0,4.985-8.86,8.135,8.135,0,0,0-3.633-6.978q-0.648-.426-6.76-3.263-3.633-1.681-3.633-3.941,0-4.066,5.182-4.066a15.336,15.336,0,0,1,4.521.891q2.745,0.891,2.717.891a0.536,0.536,0,0,0,.451-0.226,21.268,21.268,0,0,0,1.1-2.209q0.986-1.681,1.549-2.51a1.13,1.13,0,0,0-.281-0.326h0Zm29.7,27.359Q232.36,29,232.36,27.393q0-.778.043-2.4t0.042-2.4q0-4.467-1.436-6.526-2-2.811-7.295-2.811a11.847,11.847,0,0,0-5.83,1.531q-2.28,1.531-3.717,2.61-0.227-.025-0.226-0.6,0-2.359.212-7.091t0.211-7.091q0-.477-0.366-0.477a12.342,12.342,0,0,0-1.718.188,12.4,12.4,0,0,1-1.775.188,17.493,17.493,0,0,0-3.182.151,0.482,0.482,0,0,0-.338.527,2.824,2.824,0,0,0,.056.4q0.423,5.849.479,8.835,0.366,9.638.366,12.6V37.156a0.586,0.586,0,0,0,.648.678q0.873,0,2.619.025t2.619,0.025a0.591,0.591,0,0,0,.592-0.728V22.247q0-1.23,2.675-2.711a9.1,9.1,0,0,1,4.056-1.381q4.788,0,4.788,4.518,0,1.18.1,3.526t0.1,3.5q0,1.23-.1,3.665t-0.1,3.639a0.682,0.682,0,0,0,.7.828q0.873,0,2.647.025t2.648,0.025q0.591,0,.591-0.929Q232.473,35.374,232.417,32.187Zm27.67-15.461a14.567,14.567,0,0,0-19.546,0,11.908,11.908,0,0,0-3.858,8.935,11.908,11.908,0,0,0,3.858,8.935,14.426,14.426,0,0,0,19.574-.025,11.988,11.988,0,0,0,3.859-8.96,11.762,11.762,0,0,0-3.887-8.885h0Zm-4.168,14.156a7.828,7.828,0,0,1-11.153,0,7.5,7.5,0,0,1-.028-10.466,7.537,7.537,0,0,1,5.6-2.259,7.408,7.408,0,0,1,5.577,2.284,7.192,7.192,0,0,1,2.112,5.221,7.3,7.3,0,0,1-2.112,5.221h0ZM293,16.951a12.689,12.689,0,0,0-9.407-3.89q-4.027,0-7.97,3.589a1.926,1.926,0,0,1-.451.351A0.623,0.623,0,0,1,275,16.6q-0.057-.979-0.141-1.983-0.141-1.506-.619-1.506-0.339,0-3.1.452-2.057.226-3.127,0.276a0.337,0.337,0,0,0-.281.351,2.678,2.678,0,0,0,.056.4,68.714,68.714,0,0,1,.845,11.069q0,3.213-.056,9.638t-0.057,9.638a0.621,0.621,0,0,0,.648.653q0.789,0.1,5.126.1a0.65,0.65,0,0,0,.648-0.8l0.028-7.078q0-2.66.028-2.811a0.494,0.494,0,0,1,.225-0.4q1.183,1,2.366,1.983a10.015,10.015,0,0,0,6.112,1.933,12.458,12.458,0,0,0,9.378-3.941,12.278,12.278,0,0,0,3.605-8.81A12.136,12.136,0,0,0,293,16.951h0Zm-4.929,13.98a6.882,6.882,0,0,1-5.407,2.535,7.067,7.067,0,0,1-5.521-2.435,8.19,8.19,0,0,1-.056-10.592,6.642,6.642,0,0,1,5.351-2.51,7.207,7.207,0,0,1,5.548,2.435,7.559,7.559,0,0,1,2.113,5.3,7.884,7.884,0,0,1-2.028,5.271h0Z" transform="translate(-11.938 -1.906)"/>
</svg>
